<?xml version="1.0" encoding="UTF-8" standalone="no"?>
<!-- Created with Inkscape (http://www.inkscape.org/) -->

<svg
   xmlns:dc="http://purl.org/dc/elements/1.1/"
   xmlns:cc="http://creativecommons.org/ns#"
   xmlns:rdf="http://www.w3.org/1999/02/22-rdf-syntax-ns#"
   xmlns:svg="http://www.w3.org/2000/svg"
   xmlns="http://www.w3.org/2000/svg"
   xmlns:sodipodi="http://sodipodi.sourceforge.net/DTD/sodipodi-0.dtd"
   xmlns:inkscape="http://www.inkscape.org/namespaces/inkscape"
   width="13.229167mm"
   height="13.229167mm"
   viewBox="0 0 13.229167 13.229167"
   version="1.1"
   id="svg8"
   inkscape:version="0.92.4 5da689c313, 2019-01-14"
   sodipodi:docname="answers.svg">
  <defs
     id="defs2" />
  <sodipodi:namedview
     id="base"
     pagecolor="#ffffff"
     bordercolor="#666666"
     borderopacity="1.0"
     inkscape:pageopacity="0.0"
     inkscape:pageshadow="2"
     inkscape:zoom="3.959798"
     inkscape:cx="-25.407522"
     inkscape:cy="37.175277"
     inkscape:document-units="px"
     inkscape:current-layer="layer1"
     showgrid="false"
     inkscape:window-width="1920"
     inkscape:window-height="1027"
     inkscape:window-x="0"
     inkscape:window-y="0"
     inkscape:window-maximized="1"
     fit-margin-top="0"
     fit-margin-left="0"
     fit-margin-right="0"
     fit-margin-bottom="0" />
  <metadata
     id="metadata5">
    <rdf:RDF>
      <cc:Work
         rdf:about="">
        <dc:format>image/svg+xml</dc:format>
        <dc:type
           rdf:resource="http://purl.org/dc/dcmitype/StillImage" />
        <dc:title />
      </cc:Work>
    </rdf:RDF>
  </metadata>
  <g
     inkscape:label="Layer 1"
     inkscape:groupmode="layer"
     id="layer1"
     transform="translate(-17.008928,-94.782738)">
    <g
       aria-label="2+2=4"
       style="font-style:normal;font-weight:normal;font-size:14.04106998px;line-height:1.25;font-family:sans-serif;letter-spacing:0px;word-spacing:0px;fill:#000000;fill-opacity:1;stroke:none;stroke-width:0.26458335"
       id="text823">
      <path
         d="m 18.352398,102.34116 h 1.12781 v 0.27195 h -1.516545 v -0.27195 q 0.183969,-0.19037 0.500716,-0.51032 0.318346,-0.32154 0.399933,-0.41433 0.155174,-0.17437 0.215964,-0.29435 0.06239,-0.12158 0.06239,-0.23836 0,-0.19036 -0.134377,-0.31034 -0.132778,-0.11998 -0.347142,-0.11998 -0.151975,0 -0.321546,0.0528 -0.167972,0.0528 -0.35994,0.15997 v -0.32634 q 0.195168,-0.0784 0.364739,-0.11838 0.169572,-0.04 0.310348,-0.04 0.371138,0 0.591901,0.18557 0.220762,0.18557 0.220762,0.49592 0,0.14717 -0.05599,0.27995 -0.05439,0.13118 -0.199967,0.31035 -0.03999,0.0464 -0.254357,0.26875 -0.214364,0.22077 -0.604698,0.6191 z"
         style="font-size:3.27624965px;stroke-width:0.26458335"
         id="path825" />
      <path
         d="m 21.3151,100.55906 v 0.89105 h 0.89105 v 0.27195 H 21.3151 v 0.89105 h -0.268755 v -0.89105 h -0.89105 v -0.27195 h 0.89105 v -0.89105 z"
         style="font-size:3.27624965px;stroke-width:0.26458335"
         id="path827" />
      <path
         d="m 23.181987,102.34116 h 1.12781 v 0.27195 h -1.516545 v -0.27195 q 0.183969,-0.19037 0.500716,-0.51032 0.318346,-0.32154 0.399933,-0.41433 0.155174,-0.17437 0.215963,-0.29435 0.06239,-0.12158 0.06239,-0.23836 0,-0.19036 -0.134378,-0.31034 -0.132777,-0.11998 -0.347141,-0.11998 -0.151975,0 -0.321546,0.0528 -0.167972,0.0528 -0.35994,0.15997 v -0.32634 q 0.195167,-0.0784 0.364739,-0.11838 0.169572,-0.04 0.310348,-0.04 0.371138,0 0.5919,0.18557 0.220763,0.18557 0.220763,0.49592 0,0.14717 -0.05599,0.27995 -0.05439,0.13118 -0.199967,0.31035 -0.03999,0.0464 -0.254357,0.26875 -0.214364,0.22077 -0.604698,0.6191 z"
         style="font-size:3.27624965px;stroke-width:0.26458335"
         id="path829" />
      <path
         d="m 24.984884,101.12536 h 2.050855 v 0.26876 h -2.050855 z m 0,0.65269 h 2.050855 v 0.27196 h -2.050855 z"
         style="font-size:3.27624965px;stroke-width:0.26458335"
         id="path831" />
      <path
         d="m 28.621073,100.50627 -0.815863,1.27498 h 0.815863 z m -0.08479,-0.28156 h 0.406332 v 1.55654 h 0.340743 v 0.26876 h -0.340743 v 0.5631 h -0.321546 v -0.5631 h -1.078219 v -0.31195 z"
         style="font-size:3.27624965px;stroke-width:0.26458335"
         id="path833" />
    </g>
  </g>
</svg>
